# xmcd
#
# Track frame offsets: 
#        150
#        6160
#        60915
#        121044
#        175994
#        201735
#
# Disc length: 3266 seconds
#
# Revision: 0
# Processed by: cddbd v1.5.2PL0 Copyright (c) Steve Scherf et al.
# Submitted via: ExactAudioCopy v1.0b3
#
DISCID=4a0cc006
DTITLE=The Allman Brothers Band - 5-13-09 - Fox Theater, Oakland - 40t
DTITLE=h Anniversary Tour - Disc 3 of 3
DYEAR=2009
DGENRE=Blues
TTITLE0=Dreams
TTITLE1=In Memory Of Elizabeth Reed >
TTITLE2=JaMaBuBu >
TTITLE3=In Memory Of Elizabeth Reed (Reprise)
TTITLE4=Crowd Noise
TTITLE5=Southbound
EXTD=
EXTT0=
EXTT1=
EXTT2=
EXTT3=
EXTT4=
EXTT5=
PLAYORDER=
